HIERARCHY
ROOT root
{
    OFFSET 0.000000 0.000000 0.000000
    CHANNELS 6 Xposition Yposition Zposition Zrotation Xrotation Yrotation
}
MOTION
Frames:    58
Frame Time:    0.010000
14.535326    156.944519    -35.981930    173.950119    -13.613662    164.884430    
14.483012    156.980286    -35.991802    174.184479    -13.545496    164.851974    
14.498955    157.004364    -35.959606    174.412659    -13.571360    164.895813    
14.455456    157.088638    -35.926292    174.701920    -13.821188    164.865005    
14.444544    157.133835    -35.917389    174.886703    -13.977758    164.885681    
14.444544    157.133835    -35.917389    174.886688    -13.977812    164.885666    
14.261087    157.157059    -36.092628    175.955124    -13.091907    164.953445    
14.254276    157.218353    -36.077995    175.992096    -13.277347    164.899734    
14.243775    157.231491    -36.116482    176.106049    -13.159096    164.898987    
14.249809    157.247192    -36.102989    176.122131    -13.168557    164.744385    
14.267977    157.281357    -36.155888    176.160248    -13.131644    164.760925    
14.261545    157.339020    -36.167572    176.223877    -13.209574    164.662537    
14.293700    157.358444    -36.194336    176.210205    -13.185011    164.642105    
14.375973    157.380707    -36.207706    176.075974    -13.219277    164.648987    
14.430926    157.362305    -36.272659    175.994110    -13.006795    164.635361    
14.486018    157.369217    -36.306213    175.885483    -13.035003    164.601242    
14.748258    157.372665    -36.287178    174.922119    -13.675970    164.596588    
14.770213    157.369797    -36.353264    174.946548    -13.552471    164.687225    
14.823936    157.393463    -36.378609    174.943573    -13.628157    164.818985    
14.895934    157.394226    -36.391930    174.927399    -13.669226    164.885544    
14.965035    157.396530    -36.453754    174.946213    -13.579052    165.066559    
15.021901    157.421738    -36.477070    174.880127    -13.675962    165.155884    
15.070084    157.444168    -36.515011    174.930588    -13.713899    165.318787    
15.107937    157.472000    -36.530720    174.877289    -13.722148    165.319565    
15.157442    157.494278    -36.581100    174.796097    -13.637770    165.375809    
15.172526    157.516235    -36.607052    174.782684    -13.566943    165.391800    
15.032683    157.539734    -36.757965    175.643997    -12.757730    165.465210    
15.039736    157.567978    -36.778915    175.670837    -12.845551    165.497116    
15.052957    157.588730    -36.805893    175.679611    -12.858876    165.580292    
15.053667    157.610840    -36.821274    175.698364    -12.876878    165.582214    
15.053667    157.610840    -36.821274    175.698349    -12.876879    165.582199    
15.053898    157.614822    -36.827152    175.757202    -12.864241    165.623871    
15.068407    157.631607    -36.824524    175.778229    -12.888717    165.651291    
15.089303    157.655258    -36.839775    175.772552    -12.912548    165.665955    
15.210208    157.713028    -36.715378    175.068436    -13.758942    165.687164    
15.211025    157.751923    -36.690853    175.163391    -13.828229    165.670319    
15.218164    157.804504    -36.666168    175.204498    -14.020912    165.696503    
15.211776    157.848633    -36.686092    175.274017    -14.056945    165.707443    
15.226483    157.882065    -36.664761    175.313522    -14.199326    165.745453    
15.252362    157.904907    -36.681175    175.293030    -14.205788    165.726456    
15.272442    157.924484    -36.695419    175.254715    -14.245463    165.723297    
15.315308    157.922806    -36.756618    175.190964    -14.122772    165.775299    
15.348646    157.915817    -36.807068    175.170822    -14.050305    165.789566    
15.376483    157.900574    -36.835365    175.162628    -13.949191    165.786652    
15.449699    157.875916    -36.885880    175.102219    -13.819273    165.868607    
15.536014    157.856339    -36.920399    174.915100    -13.691446    165.933884    
15.598917    157.854874    -36.957371    174.797333    -13.613075    165.974564    
15.640587    157.843323    -36.999737    174.754547    -13.511085    165.964661    
15.681847    157.833282    -37.037983    174.659943    -13.395749    165.957489    
15.720187    157.837601    -37.075787    174.631119    -13.380927    165.973114    
15.778886    157.853516    -37.090603    174.497635    -13.422336    165.939468    
15.794553    157.878143    -37.111500    174.561600    -13.429373    165.976959    
15.802354    157.894485    -37.113922    174.524261    -13.434467    165.899689    
15.833327    157.905518    -37.133087    174.468201    -13.410037    165.853363    
15.851289    157.925217    -37.136070    174.402130    -13.462697    165.799957    
15.871575    157.932037    -37.141586    174.371124    -13.514094    165.745178    
15.872005    157.919937    -37.152893    174.442078    -13.526201    165.779190    
15.883621    157.921722    -37.157330    174.457962    -13.580029    165.760468    
